<?xml version="1.0" standalone="no"?>
<!DOCTYPE svg PUBLIC "-//W3C//DTD SVG 20010904//EN"
 "http://www.w3.org/TR/2001/REC-SVG-20010904/DTD/svg10.dtd">
<svg version="1.0" xmlns="http://www.w3.org/2000/svg"
 width="16.000000pt" height="16.000000pt" viewBox="0 0 16.000000 16.000000"
 preserveAspectRatio="xMidYMid meet">
<metadata>
Created by potrace 1.11, written by Peter Selinger 2001-2013
</metadata>
<g transform="translate(0.000000,16.000000) scale(0.004124,-0.004124)"
fill="#000000" stroke="none">
<path d="M1702 3745 l-72 -45 -86 18 -85 19 -66 -60 -66 -59 -87 4 -86 4 -50
-64 c-56 -73 -64 -77 -158 -87 -62 -7 -70 -10 -85 -37 -72 -132 -70 -130 -156
-157 l-80 -26 -26 -80 -26 -80 -79 -46 -79 -45 -7 -55 c-16 -116 -15 -113 -87
-170 l-68 -54 5 -86 5 -86 -60 -66 -60 -66 18 -85 19 -86 -45 -70 c-25 -39
-45 -74 -45 -78 0 -4 14 -42 31 -84 l31 -78 -31 -77 c-17 -43 -31 -81 -31 -85
0 -4 20 -39 45 -78 l45 -70 -19 -86 -18 -87 60 -66 60 -66 -5 -86 -5 -86 68
-52 c73 -56 71 -52 87 -170 l7 -55 79 -45 78 -46 26 -80 27 -80 80 -27 80 -26
46 -78 45 -79 55 -7 c118 -16 114 -14 170 -87 l52 -68 86 5 86 5 67 -61 66
-60 86 19 86 19 70 -45 c39 -25 74 -45 78 -45 4 0 42 14 85 31 l77 31 78 -31
c42 -17 80 -31 84 -31 4 0 39 20 78 45 l70 45 86 -19 86 -19 66 60 67 61 86
-5 86 -5 52 68 c56 73 52 71 171 87 l54 7 43 75 42 75 83 30 83 30 30 83 30
83 75 42 75 43 7 54 c16 119 14 115 88 171 l68 53 -5 85 -6 86 61 67 60 66
-19 86 -19 86 45 70 c25 39 45 75 45 80 0 6 -14 43 -31 83 l-30 73 30 77 c17
43 31 82 31 87 0 5 -20 41 -45 80 l-45 70 19 85 19 85 -60 67 -60 68 6 85 5
86 -69 53 c-74 56 -72 52 -88 170 l-7 55 -79 45 -78 46 -26 80 -27 80 -80 26
-80 26 -46 79 -45 79 -55 7 c-117 16 -114 15 -169 86 l-52 67 -87 -3 -87 -4
-66 60 -65 59 -87 -18 -86 -19 -70 45 c-39 25 -74 45 -78 45 -4 0 -42 -14 -84
-31 l-78 -31 -77 31 c-43 17 -80 31 -83 31 -3 0 -38 -20 -78 -45z m298 -1559
l0 -125 28 15 c34 18 123 18 165 0 75 -32 121 -114 120 -217 -1 -103 -46 -184
-120 -215 -43 -19 -131 -18 -168 2 -19 10 -31 11 -33 5 -2 -7 -43 -11 -108
-11 l-104 0 0 55 c0 48 2 55 20 55 19 0 20 7 20 220 0 213 -1 220 -20 220 -18
0 -20 7 -20 60 l0 60 110 0 110 0 0 -124z m-580 -166 l0 -270 25 0 c24 0 25
-3 25 -55 l0 -55 -130 0 -130 0 0 55 c0 42 3 55 15 55 13 0 15 30 15 210 0
180 -2 210 -15 210 -12 0 -15 13 -15 60 l0 60 105 0 105 0 0 -270z m264 244
c35 -36 36 -95 1 -129 -56 -57 -165 -15 -165 64 0 82 105 123 164 65z m956
-69 c0 -52 -1 -55 -25 -55 l-25 0 0 -195 0 -195 25 0 c24 0 25 -3 25 -55 l0
-55 -145 0 -145 0 0 55 c0 52 1 55 25 55 l25 0 0 195 0 195 -25 0 c-24 0 -25
3 -25 55 l0 55 145 0 145 0 0 -55z m445 44 c22 -6 56 -28 76 -48 31 -31 38
-46 44 -94 16 -124 -73 -207 -221 -207 l-74 0 0 -70 0 -70 30 0 c30 0 30 -1
30 -55 l0 -55 -145 0 -145 0 0 55 c0 52 1 55 25 55 l25 0 0 195 0 195 -25 0
c-24 0 -25 3 -25 55 l0 55 183 0 c102 0 199 -5 222 -11z m-2092 -140 c52 -14
114 -72 127 -117 5 -21 10 -81 10 -134 0 -98 0 -98 25 -98 24 0 25 -3 25 -55
l0 -55 -99 0 c-83 0 -100 3 -105 16 -6 15 -10 14 -32 -7 -34 -32 -133 -38
-184 -12 -100 52 -109 197 -15 269 42 32 136 45 174 25 19 -10 21 -9 21 12 0
55 -79 68 -159 28 -35 -18 -45 -20 -52 -9 -14 21 -33 88 -27 94 4 3 32 16 65
30 64 26 159 32 226 13z m707 -184 c0 -158 1 -165 20 -165 18 0 20 -7 20 -55
l0 -55 -125 0 -125 0 0 55 c0 48 2 55 20 55 19 0 20 7 20 105 0 98 -1 105 -20
105 -18 0 -20 7 -20 60 l0 60 105 0 105 0 0 -165z"/>
<path d="M2042 1973 c-21 -8 -42 -60 -42 -106 0 -113 66 -167 102 -84 35 85
-4 212 -60 190z"/>
<path d="M2910 2060 l0 -83 42 6 c49 7 78 35 78 77 0 42 -29 70 -78 77 l-42 6
0 -83z"/>
<path d="M866 1814 c-9 -8 -16 -24 -16 -34 0 -16 24 -50 35 -50 2 0 16 5 30
12 31 14 35 62 6 78 -27 14 -37 13 -55 -6z"/>
</g>
</svg>
